<svg xmlns="http://www.w3.org/2000/svg" xmlns:xlink="http://www.w3.org/1999/xlink" viewBox="0 0 205.29 206.41"><defs><style>.cls-1{isolation:isolate;}.cls-2{fill:url(#linear-gradient);}.cls-3,.cls-4,.cls-5,.cls-6{mix-blend-mode:multiply;}.cls-3{fill:url(#linear-gradient-2);}.cls-4{fill:url(#linear-gradient-3);}.cls-5{fill:url(#linear-gradient-4);}.cls-6{fill:url(#linear-gradient-5);}.cls-10,.cls-7,.cls-8,.cls-9{mix-blend-mode:screen;}.cls-7{fill:url(#radial-gradient);}.cls-8{fill:url(#radial-gradient-2);}.cls-9{fill:url(#radial-gradient-3);}.cls-10{fill:url(#radial-gradient-4);}</style><linearGradient id="linear-gradient" x1="102.64" y1="13.71" x2="102.64" y2="212.44" gradientUnits="userSpaceOnUse"><stop offset="0" stop-color="#4709ff"/><stop offset="1" stop-color="#d509ff"/></linearGradient><linearGradient id="linear-gradient-2" x1="1.22" y1="166.97" x2="82.12" y2="64.19" gradientUnits="userSpaceOnUse"><stop offset="0" stop-color="#1a069e"/><stop offset="1" stop-color="#fff"/></linearGradient><linearGradient id="linear-gradient-3" x1="197" y1="218.84" x2="-27.45" y2="107.45" gradientUnits="userSpaceOnUse"><stop offset="0" stop-color="#4907bd"/><stop offset="1" stop-color="#fff"/></linearGradient><linearGradient id="linear-gradient-4" x1="52.44" y1="251.13" x2="237.55" y2="15.94" xlink:href="#linear-gradient-2"/><linearGradient id="linear-gradient-5" x1="36.68" y1="245.5" x2="199.99" y2="104.83" xlink:href="#linear-gradient-3"/><radialGradient id="radial-gradient" cx="114.07" cy="75.1" r="102.84" gradientUnits="userSpaceOnUse"><stop offset="0" stop-color="#fff"/><stop offset="1"/></radialGradient><radialGradient id="radial-gradient-2" cx="1073.24" cy="75.1" r="102.84" gradientTransform="matrix(-1, 0, 0, 1, 1164.37, 0)" xlink:href="#radial-gradient"/><radialGradient id="radial-gradient-3" cx="240.18" cy="63.04" r="202.88" xlink:href="#radial-gradient"/><radialGradient id="radial-gradient-4" cx="171.62" cy="109.64" r="90.43" xlink:href="#radial-gradient"/></defs><g class="cls-1"><g id="Layer_2" data-name="Layer 2"><g id="Logo"><g id="Fox"><path id="Fox-2" data-name="Fox" class="cls-2" d="M202.81,1A5.72,5.72,0,0,0,196.64.8L151.05,27.73a54.47,54.47,0,0,1-27.71,7.57H82a54.51,54.51,0,0,1-27.72-7.57L8.64.8A5.73,5.73,0,0,0,.08,6.71L15.26,93.86l-4.89,23.26a1.49,1.49,0,0,0,0,.21,5.35,5.35,0,0,0-.08,1.06c0,.14,0,.27,0,.41a6.32,6.32,0,0,0,.17,1l.09.36a6.16,6.16,0,0,0,.54,1.17l0,0v0a6.09,6.09,0,0,0,.46.55,5,5,0,0,0,.46.57l0,0,0,0L98.7,204.83a5.72,5.72,0,0,0,7.89,0l86.67-82.38a5.73,5.73,0,0,0,1.66-5.33L190,93.86,205.2,6.71A5.73,5.73,0,0,0,202.81,1Z"/><path class="cls-3" d="M15.26,93.86l-4.89,23.26a1.49,1.49,0,0,0,0,.21,5.35,5.35,0,0,0-.08,1.06c0,.14,0,.27,0,.41a6.32,6.32,0,0,0,.17,1l.09.36a6.16,6.16,0,0,0,.54,1.17l0,0v0a6.09,6.09,0,0,0,.46.55,5,5,0,0,0,.46.57l0,0,0,0L98.7,204.83.08,6.71Z"/><path class="cls-4" d="M10.37,117.12a1.49,1.49,0,0,0,0,.21,5.35,5.35,0,0,0-.08,1.06c0,.14,0,.27,0,.41a6.32,6.32,0,0,0,.17,1l.09.36a6.16,6.16,0,0,0,.54,1.17l0,0v0a6.09,6.09,0,0,0,.46.55,5,5,0,0,0,.46.57l0,0,0,0L98.7,204.83l-83.44-111Z"/><path class="cls-5" d="M106.59,204.83l3.56-3.38,83.11-79a5.73,5.73,0,0,0,1.66-5.33L190,93.86,205.2,6.71Z"/><path class="cls-6" d="M106.59,204.83l86.67-82.38a5.73,5.73,0,0,0,1.66-5.33L190,93.86l-83.43,111Z"/><path class="cls-7" d="M.08,6.71,98.7,204.83,2.26,1.19A5.73,5.73,0,0,0,.08,6.71Z"/><path class="cls-8" d="M205.12,6.71,106.51,204.83,202.94,1.19A5.73,5.73,0,0,1,205.12,6.71Z"/><path class="cls-9" d="M102.64,35.3H82a54.51,54.51,0,0,1-27.72-7.57L8.64.8A5.73,5.73,0,0,0,.08,6.71L15.26,93.86l-4.89,23.26a1.49,1.49,0,0,0,0,.21,5.35,5.35,0,0,0-.08,1.06c0,.14,0,.27,0,.41a6.32,6.32,0,0,0,.17,1l.09.36a6.16,6.16,0,0,0,.54,1.17l0,0v0a6.09,6.09,0,0,0,.46.55,5,5,0,0,0,.46.57l0,0,0,0L98.7,204.83a5.65,5.65,0,0,0,3.94,1.58h0Z"/><path class="cls-10" d="M100.64,35.3V206a5.76,5.76,0,0,0,2,.37h0V35.3Z"/></g></g></g></g></svg>